# xmcd
#
# Track frame offsets: 
#        150
#        13953
#        24356
#        36079
#        47267
#        61864
#        76557
#        89422
#        107742
#        119393
#        134603
#        146030
#        159455
#        174755
#
# Disc length: 2538 seconds
#
# Revision: 1
# Processed by: cddbd v1.5.2PL0 Copyright (c) Steve Scherf et al.
# Submitted via: ExactAudioCopyFreeDBPlugin 1.0
#
DISCID=a909e80e
DTITLE=Caleb Klauder and Reeb Willms - Innocent Road
DYEAR=2016
DGENRE=Folk
TTITLE0=Coming on Strong
TTITLE1=Been On The Rocks
TTITLE2=Last Time I Saw You
TTITLE3=C'est Le Moment
TTITLE4=No One Dear But You
TTITLE5=You're The One
TTITLE6=Jump The Mississippi
TTITLE7=New Shoes
TTITLE8=Montana Cowboy
TTITLE9=Just A Little
TTITLE10=Innocent Road
TTITLE11=There Goes My Love
TTITLE12=Chalk Up Another One
TTITLE13=Stepping Stones
EXTD=
EXTT0=
EXTT1=
EXTT2=
EXTT3=
EXTT4=
EXTT5=
EXTT6=
EXTT7=
EXTT8=
EXTT9=
EXTT10=
EXTT11=
EXTT12=
EXTT13=
PLAYORDER=
